<svg xmlns="http://www.w3.org/2000/svg" viewBox="0 0 64 64" width="256" height="256">
  <!-- survey paper -->
  <rect x="10" y="6" width="44" height="52" rx="3" ry="3" fill="none" stroke="white" stroke-width="0.6"/>
  
  <!-- film projector (smaller + mirrored horizontally) -->
  <g transform="translate(51,7) scale(-0.025,0.025)">
    <path fill="white" d="M266 51.727c-39.32 0-71 31.68-71 71 0 39.319 31.68 71.002 71 71.002s71-31.683 71-71.002c0-39.32-31.68-71-71-71zm-144 32c-30.483 0-55 24.517-55 55 0 30.482 24.517 55.002 55 55.002s55-24.52 55-55.002c0-30.483-24.517-55-55-55zm-23 128v110.002h238V211.727zm350 4.648l-94 40.285v20.133l94 40.285zm-386 2.352v32h18v-32zm113 121.002v17.998h13.012l-51.123 136.275h19.222l51.507-136.275.382 136.275h18l.382-136.275 51.507 136.275h19.222l-51.123-136.275H260v-17.998c-28.003-.003-55.997 0-84 0z"/>
  </g>
  
  <!-- questionnaire lines -->
  <circle cx="16" cy="26" r="0.7" fill="white"/>
  <line x1="20" y1="26" x2="42" y2="26" stroke="white" stroke-width="0.6" stroke-linecap="round"/>
  
  <circle cx="16" cy="34" r="0.7" fill="white"/>
  <line x1="20" y1="34" x2="42" y2="34" stroke="white" stroke-width="0.6" stroke-linecap="round"/>
  
  <circle cx="16" cy="42" r="0.7" fill="white"/>
  <line x1="20" y1="42" x2="42" y2="42" stroke="white" stroke-width="0.6" stroke-linecap="round"/>
  
  <circle cx="16" cy="50" r="0.7" fill="white"/>
  <line x1="20" y1="50" x2="42" y2="50" stroke="white" stroke-width="0.6" stroke-linecap="round"/>
</svg>
